<?xml version="1.0" encoding="UTF-8" standalone="no"?>
<!-- Created with Inkscape (http://www.inkscape.org/) -->

<svg
   xmlns:dc="http://purl.org/dc/elements/1.1/"
   xmlns:cc="http://creativecommons.org/ns#"
   xmlns:rdf="http://www.w3.org/1999/02/22-rdf-syntax-ns#"
   xmlns:svg="http://www.w3.org/2000/svg"
   xmlns="http://www.w3.org/2000/svg"
   xmlns:sodipodi="http://sodipodi.sourceforge.net/DTD/sodipodi-0.dtd"
   xmlns:inkscape="http://www.inkscape.org/namespaces/inkscape"
   id="svg2"
   version="1.1"
   inkscape:version="0.91 r13725"
   width="256"
   height="256"
   viewBox="0 0 256 256"
   sodipodi:docname="SlashArash.svg">
  <metadata
     id="metadata8">
    <rdf:RDF>
      <cc:Work
         rdf:about="">
        <dc:format>image/svg+xml</dc:format>
        <dc:type
           rdf:resource="http://purl.org/dc/dcmitype/StillImage" />
        <dc:title></dc:title>
      </cc:Work>
    </rdf:RDF>
  </metadata>
  <defs
     id="defs6" />
  <sodipodi:namedview
     pagecolor="#ffffff"
     bordercolor="#666666"
     borderopacity="1"
     objecttolerance="10"
     gridtolerance="10"
     guidetolerance="10"
     inkscape:pageopacity="0"
     inkscape:pageshadow="2"
     inkscape:window-width="1366"
     inkscape:window-height="713"
     id="namedview4"
     showgrid="false"
     showguides="true"
     inkscape:guide-bbox="true"
     inkscape:zoom="1.5539095"
     inkscape:cx="125.81828"
     inkscape:cy="195.55438"
     inkscape:window-x="0"
     inkscape:window-y="27"
     inkscape:window-maximized="1"
     inkscape:current-layer="layer3" />
  <g
     inkscape:groupmode="layer"
     id="layer2"
     inkscape:label="bg"
     style="display:inline"
     transform="translate(0,-959)">
    <path
       style="fill:#e3b95f;fill-opacity:1"
       d="m 123.97413,1211.2862 c -4.48478,-4.525 -11.29733,-8.0931 -23.73548,-12.4317 -16.817526,-5.8661 -22.859087,-10.1877 -27.6964,-19.8115 -1.532464,-3.0488 -2.791074,-6.0506 -2.796917,-6.6707 -0.01984,-2.1157 -1.121759,-2.87 -6.266011,-4.2895 -7.049383,-1.9453 -12.632001,-5.0612 -16.253108,-9.0717 -1.674713,-1.8548 -4.962687,-7.1562 -7.306604,-11.7809 -2.343911,-4.6248 -5.334067,-9.868 -6.644768,-11.6516 -4.466068,-6.0775 -12.974624,-10.9823 -23.9542405,-13.8087 l -6.0352575,-1.5535 -1.0703872,-4.6863 c -0.5887104,-2.5774 -1.41002243,-7.8926 -1.82514562,-11.8117 -3.00666878,-28.3855 11.54822982,-52.7155 37.83314582,-63.2419 4.308928,-1.7256 4.898592,-2.188 5.388281,-4.2256 3.814285,-15.8712 10.773665,-28.9938 19.694433,-37.13573 5.984779,-5.46228 11.57609,-8.8091 28.712569,-17.1866 17.13803,-8.37825 23.41779,-12.15354 30.9376,-18.59906 L 128.00698,959 l 4.62113,3.92821 c 8.83853,7.51325 13.917,10.5103 36.84352,21.74329 6.26187,3.06804 13.66312,7.14628 16.44719,9.06276 12.45834,8.57604 21.47923,22.29694 25.57516,38.90024 0.64828,2.6278 1.44992,5.126 1.78146,5.5517 0.33154,0.4257 2.39041,1.4246 4.57517,2.2199 14.48173,5.2712 28.57381,19.0398 34.10498,33.3219 4.79566,12.3831 5.37249,29.368 1.48434,43.7086 l -0.74832,2.7601 -6.08163,1.5464 c -15.41011,3.9185 -22.54196,9.8131 -30.33339,25.071 -7.34348,14.3807 -12.0615,18.3042 -26.44278,21.9901 -2.47431,0.6342 -2.95927,1.0633 -3.35711,2.9707 -0.25577,1.2262 -1.50578,4.4134 -2.77784,7.0826 -4.42444,9.2843 -11.96619,14.6173 -28.72994,20.3159 -10.83942,3.6847 -17.51757,7.1855 -22.42207,11.754 -2.43478,2.268 -4.54302,4.1005 -4.68497,4.0723 -0.14199,-0.028 -1.89148,-1.6993 -3.88775,-3.7135 z"
       id="path3338"
       inkscape:connector-curvature="0"
       sodipodi:nodetypes="ssssssssscssssssscsssssssscssssssscs" />
    <text
       xml:space="preserve"
       style="font-style:normal;font-variant:normal;font-weight:normal;font-stretch:normal;font-size:34.56641006px;line-height:432.00001717%;font-family:'B Narm';-inkscape-font-specification:'B Narm';letter-spacing:0px;word-spacing:0px;fill:#000000;fill-opacity:1;stroke:none;stroke-width:1px;stroke-linecap:butt;stroke-linejoin:miter;stroke-opacity:1"
       x="655.90753"
       y="775.16724"
       id="text4170"
       sodipodi:linespacing="432.00002%"
       transform="scale(1.0021208,0.99788368)"><tspan
         sodipodi:role="line"
         id="tspan4172"
         x="655.90753"
         y="775.16724"
         style="font-style:normal;font-variant:normal;font-weight:normal;font-stretch:normal;font-size:77.77442169px;line-height:443.00003052%;font-family:'B Narm';-inkscape-font-specification:'B Narm';text-align:start;text-anchor:start" /></text>
    <path
       style="fill:#333333;fill-opacity:1;fill-rule:evenodd;stroke:none;stroke-width:1px;stroke-linecap:butt;stroke-linejoin:miter;stroke-opacity:1"
       d="m 117.16923,1095.9305 17.44898,-0.1616 1.01515,7.4874 -22.43186,0.2521 z"
       id="path4195"
       inkscape:connector-curvature="0"
       sodipodi:nodetypes="ccccc" />
  </g>
  <g
     inkscape:groupmode="layer"
     id="layer1"
     inkscape:label="slash"
     transform="translate(0,-959)">
    <path
       style="fill:#333333;fill-opacity:1;fill-rule:evenodd;stroke:none;stroke-width:1px;stroke-linecap:butt;stroke-linejoin:miter;stroke-opacity:0.94117647"
       d="m 144.25067,1037.577 -46.081032,89.7211 -23.030477,0.2028 45.293839,-89.5688 z"
       id="path4162"
       inkscape:connector-curvature="0"
       sodipodi:nodetypes="ccccc" />
  </g>
  <g
     inkscape:groupmode="layer"
     id="layer3"
     inkscape:label="arash"
     transform="translate(0,-959)">
    <path
       style="fill:#333333;fill-opacity:1;fill-rule:evenodd;stroke:none;stroke-width:1px;stroke-linecap:butt;stroke-linejoin:miter;stroke-opacity:1"
       d="m 125.59829,1073.7511 c 5.23494,-2.9548 19.28492,-0.026 25.48293,8.3792 13.99146,20.177 1.32281,41.1066 20.73147,49.0104 -2.31089,1.2868 -24.5424,2.5097 -30.88542,-15.2488 -5.06976,-17.1362 -1.76485,-37.5414 -15.32898,-42.1408 z"
       id="path4180"
       inkscape:connector-curvature="0"
       sodipodi:nodetypes="ccccc" />
  </g>
</svg>
