<?xml version="1.0" encoding="UTF-8" standalone="no"?>
<svg
   xmlns:dc="http://purl.org/dc/elements/1.1/"
   xmlns:cc="http://creativecommons.org/ns#"
   xmlns:rdf="http://www.w3.org/1999/02/22-rdf-syntax-ns#"
   xmlns:svg="http://www.w3.org/2000/svg"
   xmlns="http://www.w3.org/2000/svg"
   xmlns:sodipodi="http://sodipodi.sourceforge.net/DTD/sodipodi-0.dtd"
   xmlns:inkscape="http://www.inkscape.org/namespaces/inkscape"
   enable-background="new 0 0 56.693 56.693"
   height="20"
   id="Layer_1"
   version="1.1"
   viewBox="0 0 20 20"
   width="20"
   x="0px"
   xml:space="preserve"
   y="0px"
   inkscape:version="0.48.5 r10040"
   sodipodi:docname="twitter.svg"><metadata
     id="metadata3019"><rdf:RDF><cc:Work
         rdf:about=""><dc:format>image/svg+xml</dc:format><dc:type
           rdf:resource="http://purl.org/dc/dcmitype/StillImage" /></cc:Work></rdf:RDF></metadata><defs
     id="defs3017" /><sodipodi:namedview
     pagecolor="#ffffff"
     bordercolor="#666666"
     borderopacity="1"
     objecttolerance="10"
     gridtolerance="10"
     guidetolerance="10"
     inkscape:pageopacity="0"
     inkscape:pageshadow="2"
     inkscape:window-width="1366"
     inkscape:window-height="702"
     id="namedview3015"
     showgrid="false"
     inkscape:zoom="16.651085"
     inkscape:cx="2.7057331"
     inkscape:cy="12.708617"
     inkscape:window-x="0"
     inkscape:window-y="27"
     inkscape:window-maximized="1"
     inkscape:current-layer="Layer_1" /><path
     d="M 19.896868,3.7628228 C 19.165422,4.0879549 18.378239,4.3072676 17.552282,4.405413 18.395607,3.9005496 19.042236,3.100846 19.347173,2.1468561 18.558374,2.6149655 17.685163,2.9546376 16.755003,3.1380039 16.010631,2.3447626 14.949612,1.8487848 13.7755,1.8487848 c -2.254113,0 -4.0817198,1.8276055 -4.0817198,4.0821234 0,0.3194773 0.035943,0.6308769 0.1058203,0.9301601 C 6.4069178,6.6906271 3.3987405,5.0657743 1.385345,2.5959826 1.0339602,3.1985876 0.83282267,3.8997418 0.83282267,4.6485552 c 0,1.4160413 0.72054093,2.6656789 1.81589263,3.397529 -0.668843,-0.0214 -1.2985087,-0.2051763 -1.84901171,-0.5109217 -4.0384e-4,0.016962 -4.0384e-4,0.034335 -4.0384e-4,0.051699 0,1.9774488 1.40715525,3.6269375 3.27474565,4.0025565 -0.3424994,0.0929 -0.703174,0.142977 -1.075561,0.142977 -0.2633365,0 -0.5189994,-0.02544 -0.7681998,-0.0735 0.5198073,1.621622 2.0271272,2.802194 3.8131319,2.83491 -1.3970581,1.094944 -3.1568095,1.747631 -5.06963599,1.747631 -0.32917093,0 -0.65430298,-0.01938 -0.97378051,-0.05736 1.807007,1.158762 3.9524743,1.834067 6.2574787,1.834067 7.5087333,0 11.6142813,-6.219917 11.6142813,-11.6142818 0,-0.1769033 -0.0036,-0.3534037 -0.0113,-0.5286927 0.797279,-0.5743325 1.489549,-1.2936619 2.036417,-2.1123484 z"
     id="path3013"
     inkscape:connector-curvature="0"
     style="fill:#494949;fill-opacity:1" /></svg>